<mxfile host="app.diagrams.net" agent="Mozilla/5.0 (Windows NT 10.0; Win64; x64) AppleWebKit/537.36 (KHTML, like Gecko) Chrome/128.0.0.0 Safari/537.36" version="24.7.16">
  <diagram name="PÃ¡gina-1" id="dF_1gfTMUh-b7ktBkAjg">
    <mxGraphModel dx="1050" dy="569" grid="1" gridSize="10" guides="1" tooltips="1" connect="1" arrows="1" fold="1" page="1" pageScale="1" pageWidth="827" pageHeight="1169" math="0" shadow="0">
      <root>
        <mxCell id="0" />
        <mxCell id="1" parent="0" />
        <mxCell id="SYozwbhqpHX2PgNL5o8S-1" value="" style="ellipse;whiteSpace=wrap;html=1;" vertex="1" parent="1">
          <mxGeometry x="340" y="60" width="120" height="80" as="geometry" />
        </mxCell>
        <mxCell id="SYozwbhqpHX2PgNL5o8S-2" value="" style="shape=flexArrow;endArrow=classic;html=1;rounded=0;width=35;endSize=20.27;endWidth=20;" edge="1" parent="1">
          <mxGeometry width="50" height="50" relative="1" as="geometry">
            <mxPoint x="399.5" y="160" as="sourcePoint" />
            <mxPoint x="399.5" y="270" as="targetPoint" />
            <Array as="points">
              <mxPoint x="399.5" y="200" />
            </Array>
          </mxGeometry>
        </mxCell>
        <mxCell id="SYozwbhqpHX2PgNL5o8S-3" value="" style="rhombus;whiteSpace=wrap;html=1;" vertex="1" parent="1">
          <mxGeometry x="360" y="280" width="80" height="80" as="geometry" />
        </mxCell>
      </root>
    </mxGraphModel>
  </diagram>
</mxfile>
